<?xml version="1.0" encoding="UTF-8" standalone="no"?>
<!-- Created with Inkscape (http://www.inkscape.org/) -->

<svg
   width="150mm"
   height="150mm"
   viewBox="0 0 149.99998 150"
   version="1.1"
   id="svg5"
   inkscape:version="1.1.1 (3bf5ae0d25, 2021-09-20)"
   sodipodi:docname="work_in_progress_logo.svg"
   xmlns:inkscape="http://www.inkscape.org/namespaces/inkscape"
   xmlns:sodipodi="http://sodipodi.sourceforge.net/DTD/sodipodi-0.dtd"
   xmlns="http://www.w3.org/2000/svg"
   xmlns:svg="http://www.w3.org/2000/svg">
  <sodipodi:namedview
     id="namedview7"
     pagecolor="#ffffff"
     bordercolor="#999999"
     borderopacity="1"
     inkscape:pageshadow="0"
     inkscape:pageopacity="0"
     inkscape:pagecheckerboard="0"
     inkscape:document-units="mm"
     showgrid="false"
     fit-margin-top="0"
     fit-margin-left="0"
     fit-margin-right="0"
     fit-margin-bottom="0"
     inkscape:zoom="0.73406285"
     inkscape:cx="34.73817"
     inkscape:cy="245.89175"
     inkscape:window-width="1920"
     inkscape:window-height="1009"
     inkscape:window-x="-8"
     inkscape:window-y="-8"
     inkscape:window-maximized="1"
     inkscape:current-layer="layer1"
     width="150mm" />
  <defs
     id="defs2">
    <rect
       x="-138.95268"
       y="333.75888"
       width="1.3622812"
       height="49.042122"
       id="rect11909" />
    <rect
       x="286.07904"
       y="701.57483"
       width="314.68695"
       height="205.70445"
       id="rect87030" />
    <rect
       x="264.28256"
       y="588.50549"
       width="388.25012"
       height="98.084244"
       id="rect43940" />
    <rect
       x="288.80362"
       y="457.72647"
       width="381.43872"
       height="113.06934"
       id="rect16973" />
    <rect
       x="175.73427"
       y="382.80099"
       width="440.01682"
       height="178.45883"
       id="rect1419" />
  </defs>
  <g
     inkscape:label="Layer 1"
     inkscape:groupmode="layer"
     id="layer1"
     transform="translate(78.216414,-112.52641)">
    <text
       xml:space="preserve"
       transform="scale(0.26458333)"
       id="text1417"
       style="font-style:normal;font-variant:normal;font-weight:normal;font-stretch:normal;font-size:40px;line-height:1.25;font-family:'Good Timing';-inkscape-font-specification:'Good Timing';white-space:pre;shape-inside:url(#rect1419);fill:#000000;fill-opacity:1;stroke:none" />
    <text
       xml:space="preserve"
       transform="scale(0.26458333)"
       id="text16971"
       style="font-size:40px;line-height:1.25;font-family:'Good Timing';-inkscape-font-specification:'Good Timing';white-space:pre;shape-inside:url(#rect16973)" />
    <text
       xml:space="preserve"
       style="font-size:10.5833px;line-height:1.25;font-family:'Good Timing';-inkscape-font-specification:'Good Timing';stroke-width:0.264583"
       x="105.60801"
       y="146.33739"
       id="text32530"><tspan
         sodipodi:role="line"
         id="tspan32528"
         style="stroke-width:0.264583"
         x="105.60801"
         y="146.33739" /></text>
    <text
       xml:space="preserve"
       style="font-size:10.5833px;line-height:1.25;font-family:'Good Timing';-inkscape-font-specification:'Good Timing';stroke-width:0.264583"
       x="105.24757"
       y="135.8847"
       id="text38374"><tspan
         sodipodi:role="line"
         id="tspan38372"
         style="stroke-width:0.264583"
         x="105.24757"
         y="135.8847" /></text>
    <text
       xml:space="preserve"
       transform="scale(0.26458333)"
       id="text43938"
       style="font-size:40px;line-height:1.25;font-family:'Good Timing';-inkscape-font-specification:'Good Timing';white-space:pre;shape-inside:url(#rect43940)" />
    <text
       xml:space="preserve"
       style="font-size:10.5833px;line-height:1.25;font-family:'Good Timing';-inkscape-font-specification:'Good Timing';stroke-width:0.264583"
       x="77.854362"
       y="110.29369"
       id="text74492"><tspan
         sodipodi:role="line"
         id="tspan74490"
         style="stroke-width:0.264583"
         x="77.854362"
         y="110.29369" /></text>
    <text
       xml:space="preserve"
       transform="scale(0.26458333)"
       id="text87028"
       style="font-size:40px;line-height:1.25;font-family:'Good Timing';-inkscape-font-specification:'Good Timing';white-space:pre;shape-inside:url(#rect87030)" />
    <text
       xml:space="preserve"
       transform="matrix(0.26458333,0,0,0.26458333,64.771829,97.027621)"
       id="text11907"
       style="font-style:normal;font-weight:normal;font-size:40px;line-height:1.25;font-family:sans-serif;white-space:pre;shape-inside:url(#rect11909);fill:#000000;fill-opacity:1;stroke:none" />
    <rect
       style="fill:#1c2833;stroke:#d9dddb;stroke-width:0.2;stroke-linecap:square;stroke-linejoin:round;fill-opacity:1"
       id="rect86"
       width="150"
       height="150"
       x="-78.216415"
       y="112.52641" />
    <g
       aria-label="CSE 165 PONG by Danielle Rodriguez &amp;  Kieran Pfann  "
       transform="translate(-120.94839,32.84816)"
       id="text8193"
       style="font-weight:bold;font-size:25.4px;font-family:'Good Timing';-inkscape-font-specification:'Good Timing Bold';text-align:center;text-anchor:middle;white-space:pre;stroke-width:0.264583;fill:#ffffff">
      <path
         d="m 71.707245,147.05825 q -1.905,0 -3.5052,-0.5842 -1.6002,-0.6096 -2.7686,-1.6764 -1.143,-1.0922 -1.8034,-2.6162 -0.6604,-1.524 -0.6604,-3.3782 0,-1.8542 0.6604,-3.3528 0.6604,-1.524 1.8034,-2.6162 1.1684,-1.0922 2.7686,-1.6764 1.6002,-0.6096 3.5052,-0.6096 h 8.0772 v 4.2418 h -8.382 q -0.8636,0 -1.6002,0.3048 -0.7366,0.2794 -1.27,0.8128 -0.5334,0.5334 -0.8382,1.27 -0.3048,0.7366 -0.3048,1.6256 0,0.889 0.3048,1.6256 0.3048,0.7366 0.8382,1.27 0.5334,0.508 1.27,0.8128 0.7366,0.2794 1.6002,0.2794 h 8.382 v 4.2672 z"
         id="path25675"
         style="fill:#ffffff" />
      <path
         d="m 81.790998,147.05825 v -4.2672 h 12.3444 q 0.4826,0 0.7874,-0.2794 0.3048,-0.3048 0.3048,-0.8382 0,-0.5334 -0.3048,-0.8382 -0.3048,-0.3048 -0.7874,-0.3048 h -7.2644 q -1.143,0 -2.1336,-0.3556 -0.9652,-0.381 -1.6764,-1.016 -0.6858,-0.6604 -1.0922,-1.5748 -0.381,-0.9144 -0.381,-2.032 0,-1.1176 0.381,-2.032 0.4064,-0.9398 1.0922,-1.6002 0.7112,-0.6604 1.6764,-1.016 0.9906,-0.3556 2.1336,-0.3556 h 12.547598 v 4.2418 H 87.074198 q -0.4826,0 -0.7874,0.2794 -0.2794,0.2794 -0.2794,0.8128 0,0.508 0.2794,0.8128 0.3048,0.3048 0.7874,0.3048 h 7.2644 q 1.1684,0 2.1336,0.381 0.9652,0.3556 1.6764,1.016 0.711198,0.6604 1.092198,1.6002 0.4064,0.9144 0.4064,2.0066 0,1.143 -0.4064,2.0828 -0.381,0.9144 -1.092198,1.6002 -0.7112,0.6604 -1.6764,1.016 -0.9652,0.3556 -2.1336,0.3556 z"
         id="path25677"
         style="fill:#ffffff" />
      <path
         d="m 107.74977,140.53045 v -3.5306 h 9.7536 v 3.5306 z m -5.9182,6.5278 v -16.51 h 15.8496 v 4.2418 h -11.4046 v 8.001 h 11.43 v 4.2672 z"
         id="path25679"
         style="fill:#ffffff" />
      <path
         d="m 130.02553,147.05825 v -10.4648 q 0,-0.8128 -0.508,-1.2954 -0.4826,-0.4826 -1.2954,-0.4826 h -1.9812 v -4.2672 h 2.7432 q 1.1938,0 2.1844,0.381 1.016,0.3556 1.7526,1.0414 0.7366,0.6858 1.143,1.651 0.4064,0.9398 0.4064,2.0828 v 11.3538 z"
         id="path25681"
         style="fill:#ffffff" />
      <path
         d="m 144.73212,147.05825 q -1.905,0 -3.429,-0.5588 -1.4986,-0.5588 -2.5654,-1.6002 -1.0414,-1.0414 -1.6002,-2.5146 -0.5588,-1.4732 -0.5588,-3.302 0,-1.9812 0.6604,-3.556 0.6604,-1.6002 1.8288,-2.6924 1.1684,-1.1176 2.7686,-1.7018 1.6002,-0.5842 3.4798,-0.5842 h 7.7216 v 4.2418 h -8.0264 q -3.0988,0 -3.8862,2.2606 h 7.7216 q 2.54,0 3.7084,1.27 1.1684,1.27 1.1684,3.4036 0,1.1684 -0.3556,2.159 -0.3302,0.9652 -1.0414,1.6764 -0.6858,0.7112 -1.778,1.1176 -1.0922,0.381 -2.6162,0.381 z m -3.7084,-6.7564 q 0.635,2.4892 3.9116,2.4892 h 2.9464 q 1.2446,0 1.2446,-1.2954 0,-1.1938 -1.143,-1.1938 z"
         id="path25683"
         style="fill:#ffffff" />
      <path
         d="m 156.00971,147.05825 v -4.2672 h 10.8204 q 0.5334,0 0.8636,-0.2794 0.3302,-0.3048 0.3302,-0.8382 0,-0.5334 -0.3302,-0.8382 -0.3048,-0.3048 -0.7366,-0.3048 h -10.9474 v -9.9822 h 15.7734 v 4.2418 h -11.5316 v 2.2098 h 6.8834 q 1.143,0 2.1082,0.381 0.9906,0.3556 1.7018,1.016 0.7366,0.6604 1.143,1.6002 0.4064,0.9144 0.4064,2.0066 0,1.143 -0.4064,2.0828 -0.4064,0.9144 -1.143,1.6002 -0.7366,0.6604 -1.7526,1.016 -0.9906,0.3556 -2.159,0.3556 z"
         id="path25685"
         style="fill:#ffffff" />
      <path
         d="m 83.988132,174.71885 v -3.937 h 5.3594 q 0.889,0 1.4732,-0.5842 0.6096,-0.5842 0.6096,-1.524 0,-0.9652 -0.6096,-1.5494 -0.5842,-0.5842 -1.4732,-0.5842 h -6.6294 v 12.2682 h -4.4196 v -16.51 h 10.9728 q 1.4478,0 2.6416,0.4572 1.2192,0.4572 2.0828,1.27 0.889,0.8128 1.3716,1.9558 0.4826,1.143 0.4826,2.54 0,1.3716 -0.4826,2.5146 -0.4826,1.143 -1.3716,1.9812 -0.8636,0.8128 -2.0828,1.27 -1.1938,0.4318 -2.6416,0.4318 z"
         id="path25687"
         style="fill:#ffffff" />
      <path
         d="m 108.9309,174.54105 q 0.8636,0 1.6002,-0.2794 0.7366,-0.3048 1.27,-0.8128 0.5334,-0.5334 0.8128,-1.27 0.3048,-0.7366 0.3048,-1.6256 0,-0.889 -0.3048,-1.6256 -0.2794,-0.7366 -0.8128,-1.27 -0.5334,-0.5334 -1.27,-0.8128 -0.7366,-0.3048 -1.6002,-0.3048 h -2.9972 q -0.8636,0 -1.6002,0.3048 -0.7366,0.2794 -1.27,0.8128 -0.5334,0.5334 -0.8382,1.27 -0.3048,0.7366 -0.3048,1.6256 0,0.889 0.2794,1.6256 0.3048,0.7366 0.8382,1.27 0.5334,0.508 1.27,0.8128 0.7366,0.2794 1.6256,0.2794 z m -2.6924,4.2672 q -1.905,0 -3.5052,-0.5842 -1.6002,-0.6096 -2.768604,-1.6764 -1.143,-1.0922 -1.803402,-2.6162 -0.6604,-1.524 -0.6604,-3.3782 0,-1.8542 0.6604,-3.3528 0.660402,-1.524 1.803402,-2.6162 1.168404,-1.0922 2.768604,-1.6764 1.6002,-0.6096 3.5052,-0.6096 h 2.3876 q 1.8796,0 3.4798,0.6096 1.6002,0.5842 2.7432,1.6764 1.1684,1.0922 1.8288,2.6162 0.6604,1.4986 0.6604,3.3528 0,1.8542 -0.6604,3.3782 -0.6604,1.524 -1.8288,2.6162 -1.143,1.0668 -2.7432,1.6764 -1.6002,0.5842 -3.4798,0.5842 z"
         id="path25689"
         style="fill:#ffffff" />
      <path
         d="m 134.96587,178.80825 q -0.889,0 -1.397,-0.3302 -0.508,-0.3302 -1.143,-1.0668 l -8.509,-9.1948 v 10.5918 h -4.31799 v -14.6304 q 0,-1.8796 2.0574,-1.8796 h 1.06679 q 0.508,0 0.889,0.0762 0.381,0.0762 0.6858,0.2286 0.3048,0.1524 0.5588,0.381 0.2794,0.2286 0.5588,0.5334 l 7.7978,8.4074 v -9.6266 h 4.2926 v 14.8082 q 0,1.7018 -1.651,1.7018 z"
         id="path25691"
         style="fill:#ffffff" />
      <path
         d="m 148.47865,178.80825 q -1.905,0 -3.5052,-0.5842 -1.6002,-0.6096 -2.7686,-1.6764 -1.143,-1.0922 -1.8034,-2.6162 -0.6604,-1.524 -0.6604,-3.3782 0,-1.8542 0.6604,-3.3528 0.6604,-1.524 1.8034,-2.6162 1.1684,-1.0922 2.7686,-1.6764 1.6002,-0.6096 3.5052,-0.6096 h 8.8392 v 4.2418 h -9.144 q -0.8636,0 -1.6002,0.3048 -0.7366,0.2794 -1.27,0.8128 -0.5334,0.5334 -0.8382,1.27 -0.3048,0.7366 -0.3048,1.6256 0,0.889 0.3048,1.6256 0.3048,0.7366 0.8382,1.27 0.5334,0.508 1.27,0.8128 0.7366,0.2794 1.6002,0.2794 h 4.9276 v -2.2606 h -5.3594 v -3.5306 h 9.5758 v 10.0584 z"
         id="path25693"
         style="fill:#ffffff" />
    </g>
  </g>
</svg>
